<svg width="14" height="14" viewBox="0 0 14 14" fill="none" xmlns="http://www.w3.org/2000/svg">
<path fill-rule="evenodd" clip-rule="evenodd" d="M1.89551 12.8338C1.89551 12.7178 1.9416 12.6065 2.02365 12.5244C2.1057 12.4424 2.21698 12.3963 2.33301 12.3963H11.6663C11.7824 12.3963 11.8937 12.4424 11.9757 12.5244C12.0577 12.6065 12.1038 12.7178 12.1038 12.8338C12.1038 12.9498 12.0577 13.0611 11.9757 13.1431C11.8937 13.2252 11.7824 13.2713 11.6663 13.2713H2.33301C2.21698 13.2713 2.1057 13.2252 2.02365 13.1431C1.9416 13.0611 1.89551 12.9498 1.89551 12.8338Z" fill="#F4BD2F"/>
<path d="M6.72008 8.70858L10.1717 5.257C9.59071 5.01502 9.06322 4.66078 8.61941 4.21458C8.17294 3.77066 7.8185 3.24296 7.57641 2.66175L4.12425 6.11333C3.85475 6.38283 3.72 6.517 3.6045 6.66575C3.46767 6.8408 3.3505 7.03035 3.25508 7.231C3.174 7.40075 3.11391 7.58158 2.99316 7.94266L2.3585 9.84841C2.32937 9.9356 2.32511 10.0292 2.3462 10.1186C2.36729 10.2081 2.41289 10.2899 2.47789 10.3549C2.54289 10.4199 2.62471 10.4655 2.71418 10.4866C2.80365 10.5077 2.89723 10.5035 2.98441 10.4743L4.88958 9.83966C5.25125 9.71891 5.43208 9.65883 5.60183 9.57716C5.80327 9.4815 5.99169 9.36522 6.16708 9.22833C6.31583 9.11225 6.45 8.9775 6.7195 8.70858M11.1295 4.29916C11.2999 4.12872 11.4351 3.92638 11.5273 3.7037C11.6195 3.48101 11.6669 3.24235 11.6669 3.00133C11.6669 2.76031 11.6194 2.52166 11.5271 2.299C11.4349 2.07634 11.2997 1.87403 11.1292 1.70362C10.9588 1.53322 10.7564 1.39805 10.5337 1.30584C10.3111 1.21363 10.0724 1.16619 9.83137 1.16621C9.59036 1.16624 9.3517 1.21374 9.12904 1.306C8.90638 1.39826 8.70407 1.53347 8.53366 1.70391L8.1195 2.11808L8.13758 2.17058C8.28925 2.6075 8.57566 3.18091 9.11408 3.71933C9.56318 4.17107 10.1117 4.51147 10.7159 4.71333L11.1295 4.29916Z" fill="#F4BD2F"/>
</svg>
